<svg width="512" height="512" viewBox="0 0 512 512" fill="none" xmlns="http://www.w3.org/2000/svg">
  <defs>
    <radialGradient id="body" cx="0.38" cy="0.34" r="0.85">
      <stop offset="0" stop-color="#ff8a72" />
      <stop offset="0.55" stop-color="#ff6b5e" />
      <stop offset="1" stop-color="#e6452f" />
    </radialGradient>
    <linearGradient id="leaf" x1="0" y1="0" x2="0" y2="1">
      <stop offset="0" stop-color="#5fd38b" />
      <stop offset="1" stop-color="#2faf63" />
    </linearGradient>
  </defs>

  <!-- Tomato body, kept within the maskable safe zone -->
  <path
    d="M256 132c-34 0-52 16-80 16-58 0-96 50-96 116 0 84 70 156 176 156s176-72 176-156c0-66-38-116-96-116-28 0-46-16-80-16z"
    fill="url(#body)"
  />

  <!-- Soft highlight for a volumetric sheen -->
  <ellipse cx="196" cy="244" rx="40" ry="56" fill="#ffffff" opacity="0.28" transform="rotate(-24 196 244)" />

  <!-- Leafy calyx -->
  <g fill="url(#leaf)">
    <path d="M256 96c10 22 28 36 54 40-20 16-44 18-66 8 6-16 8-32 12-48z" />
    <path d="M256 96c-10 22-28 36-54 40 20 16 44 18 66 8-6-16-8-32-12-48z" />
    <path d="M256 84c6 18 6 36 0 56-6-20-6-38 0-56z" />
  </g>
  <rect x="247" y="78" width="18" height="34" rx="9" fill="#2faf63" />
</svg>
